<svg viewBox="0 0 169 169" xmlns="http://www.w3.org/2000/svg"><g fill="#002a34"><path d="m11.27 169h146.46a11.29 11.29 0 0 0 11.27-11.27v-146.46a11.29 11.29 0 0 0 -11.27-11.27h-146.46a11.29 11.29 0 0 0 -11.27 11.27v146.46a11.29 11.29 0 0 0 11.27 11.27zm-5.64-11.27h11.27v5.64h-5.63a5.66 5.66 0 0 1 -5.64-5.64zm45.07-16.9h-28.17v-5.63h28.17zm0 5.64v5.63h-28.17v-5.63zm0 11.26v5.64h-28.17v-5.64zm0-28.16h-28.17v-5.64h28.17zm-11.27-11.27h-33.8v-62h33.8zm-22.53 5.63v5.64h-11.27v-5.64zm0 11.27v5.63h-11.27v-5.63zm0 11.27v5.63h-11.27v-5.63zm140.83 16.9h-101.4v-39.44h107v33.8a5.66 5.66 0 0 1 -5.6 5.64zm5.64-152.1v107h-118.3v-112.64h112.66a5.66 5.66 0 0 1 5.64 5.64zm-152.1-5.64h28.16v45.07h-33.8v-39.43a5.66 5.66 0 0 1 5.64-5.64z"/><path d="m67.6 129.57h36.62v5.63h-36.62z"/><path d="m95.77 140.83h50.7v5.64h-50.7z"/><path d="m81.68 152.1h16.9v5.63h-16.9z"/><path d="m107 152.1h8.45v5.63h-8.45z"/><path d="m126.75 129.57h19.72v5.63h-19.72z"/><circle cx="14.02" cy="13.95" r="2.82"/><circle cx="22.47" cy="13.95" r="2.82"/><circle cx="30.92" cy="13.95" r="2.82"/><path d="m129.57 104.22h28.16v5.63h-28.16z"/><path d="m111.5 109.85 2 2a2.81 2.81 0 0 0 4 0l5.64-5.63a2.82 2.82 0 0 0 .82-2v-8.45a2.81 2.81 0 0 0 -2.84-2.77h-11.27a2.82 2.82 0 0 0 -2.85 2.77v8.45h-56.3v5.63zm1.17-11.27h5.63v4.47l-2.82 2.82-2.81-2.82z"/><path d="m11.27 62h16.9v5.6h-16.9z"/><path d="m11.27 73.23h11.26v5.64h-11.26z"/><path d="m11.27 84.5h16.9v5.63h-16.9z"/><path d="m22.53 95.77h11.27v5.63h-11.27z"/><path d="m22.53 107h11.27v5.64h-11.27z"/><path d="m68.54 83.78a2.79 2.79 0 0 0 2.19.7l25.35-2.81a2.84 2.84 0 0 0 1.68-.81l10.44-10.44h6.8l-2.29 13.58a2.8 2.8 0 0 0 1.51 3l5.56 2.78a2.91 2.91 0 0 0 3-.22 3 3 0 0 0 .91-1.15l7.09-16.55a11.9 11.9 0 0 0 -6.24-15.61 12.39 12.39 0 0 0 -2.73-.8l-6.12-1 3.76-3.75h12.91a2.83 2.83 0 0 0 1.69-.56l11.27-8.45a2.82 2.82 0 0 0 .83-3.52l-2.82-5.63a2.81 2.81 0 0 0 -3.2-1.47l-10.38 2.59-8.88-3.55a8.5 8.5 0 0 0 .23-1.94v-9.53a7.35 7.35 0 0 0 -10.74-6.56l-4.61 2.3a2.82 2.82 0 0 0 -1.55 2.52v8.45h-11.2a2.92 2.92 0 0 0 -1 .2l-14.18 5.63a2.83 2.83 0 0 0 -1.77 2.62v5.63a2.82 2.82 0 0 0 2.82 2.82h16.13l-1.91 7.55-7.86 18.34-15.7 5.24a2.82 2.82 0 0 0 -1.93 2.67v5.63a2.81 2.81 0 0 0 .94 2.1zm57.2-18.56a6.24 6.24 0 0 1 -.18 4.44l-5.92 13.8-1.1-.55 2.54-15.23a1.52 1.52 0 0 0 -.06-.79 2.94 2.94 0 0 0 -2.78-2.11h-14.41a7.1 7.1 0 0 1 -6.91-8.78c0-.13.07-.26.11-.39l.4-1.21 11.31 4.6a3 3 0 0 0 .59.16l11.51 1.84a6.23 6.23 0 0 1 4.9 4.19zm-7.44-20.15a2.8 2.8 0 0 0 -2 .82l-7.13 7.11-10.07-4 2.2-8.81a2.9 2.9 0 0 0 -.52-2.53 2.84 2.84 0 0 0 -2.2-1h-2.81v-5.66h8.93a8.43 8.43 0 0 0 13 3.94l9.44 3.78 1.6 6.37zm-2.82-16.9a2.81 2.81 0 0 1 -3.23 2.83 2.87 2.87 0 0 1 -2.4-2.87v-2.78h5.63zm24.52 10.29-6 4.54-1.11-4.42 6.37-1.58zm-27.09-21.35a1.82 1.82 0 0 1 1.74 0 1.76 1.76 0 0 1 .83 1.49v1.08h-5.63v-1.04zm-31.23 18.6 8.45-3.38v4.29h-8.45zm-8.45 42.29 15-5a2.82 2.82 0 0 0 1.7-1.56l3.07-7.29c.09.16.19.31.29.46a12.65 12.65 0 0 0 7.35 5.25l-6.17 6.14-21.24 2.4z"/></g></svg>