<svg viewBox="0 0 158.76 198.26" xmlns="http://www.w3.org/2000/svg"><g fill="#002a34"><path d="m142.23 0h-125.69a16.56 16.56 0 0 0 -16.54 16.54v89.17a16.67 16.67 0 0 0 16.65 16.65h45.54l-4.76 16.64h-11.35v6.59h66.22v-6.59h-10.81l-4.76-16.65h45.5a16.55 16.55 0 0 0 16.53-16.53v-89.28a16.56 16.56 0 0 0 -16.53-16.54zm-78.5 139 4.75-16.65h21.62l4.76 16.65zm78.15-23.23h-125.38a9.92 9.92 0 0 1 -9.92-9.91v-6.73h145.21v6.74a9.91 9.91 0 0 1 -9.91 9.91zm9.91-23.23h-145.21v-76a9.92 9.92 0 0 1 9.92-9.96h125.38a9.91 9.91 0 0 1 9.91 9.92z"/><path d="m105.89 152.18h-92.52a3.3 3.3 0 0 0 -3.3 3.3v39.52a3.3 3.3 0 0 0 3.3 3.3h92.52a3.31 3.31 0 0 0 3.31-3.3v-39.52a3.31 3.31 0 0 0 -3.31-3.3zm-3.27 39.5h-86v-32.92h86z"/><path d="m23.23 178.51h6.58v6.58h-6.58z"/><path d="m23.23 165.35h6.58v6.58h-6.58z"/><path d="m36.4 165.35h6.58v6.58h-6.58z"/><path d="m49.57 165.35h6.58v6.58h-6.58z"/><path d="m75.9 165.35h6.58v6.58h-6.58z"/><path d="m62.73 165.35h6.58v6.58h-6.58z"/><path d="m89.06 178.51h6.58v6.58h-6.58z"/><path d="m89.06 165.35h6.58v6.58h-6.58z"/><path d="m36.4 178.51h46.08v6.58h-46.08z"/><path d="m115.78 169v12.47a16.68 16.68 0 0 0 17.46 16.78 16.47 16.47 0 0 0 15.46-16.43v-13.22a16.45 16.45 0 0 0 -15.46-16.42 16.67 16.67 0 0 0 -17.46 16.82zm26.33 12.82a9.88 9.88 0 0 1 -9.14 9.85 10 10 0 0 1 -10.61-10.13v-12.66a10 10 0 0 1 10.64-10.13 9.89 9.89 0 0 1 9.14 9.85z"/><path d="m128.95 165.35h6.58v6.58h-6.58z"/><path d="m55.22 49.68h48.09v6.61h-48.09z" transform="matrix(.275134 -.96140589 .96140589 .275134 6.52 114.61)"/><path d="m61.58 38.94-4.23-5.08-19.83 16.53a3.3 3.3 0 0 0 -.42 4.61 4.16 4.16 0 0 0 .42.42l19.83 16.58 4.23-5.07-16.78-14z"/><path d="m121.48 50.81a3.33 3.33 0 0 0 -.42-.42l-19.83-16.53-4.23 5.08 16.78 14-16.78 13.97 4.23 5.09 19.83-16.52a3.3 3.3 0 0 0 .42-4.67z"/></g></svg>