<svg viewBox="0 0 450 512" xmlns="http://www.w3.org/2000/svg"><g fill="#002a34"><path d="m225.38 59.58a105 105 0 0 0 -56.51 193.47c31 19.86 69.06 22 104.43 5.7a15 15 0 0 0 -12.54-27.25c-25.86 11.9-53.46 10.54-75.7-3.71a75 75 0 1 1 115.32-63.21 15 15 0 0 1 -30 .23c0-.07 0-.15 0-.23a45.06 45.06 0 1 0 -15 33.51 45 45 0 0 0 75-33.51 105.12 105.12 0 0 0 -105-105zm14.79 107.42a15 15 0 1 1 .11-4.12 15.37 15.37 0 0 0 -.11 4.12z"/><path d="m450 197a15.17 15.17 0 0 0 -4.39-10.59l-55.61-55.62v-115.79a15 15 0 0 0 -15-15h-300a15 15 0 0 0 -15 15v115.79l-55.61 55.6-.14.17a15.07 15.07 0 0 0 -4.25 10.44v270a45 45 0 0 0 45 45h360a45 45 0 0 0 45-45zm-60-24.2 23.79 23.78-23.79 23.79zm-300-35.8v-107h270v107 113.79l-81.21 81.21h-107.58l-81.21-81.21zm-30 35.8v47.57l-23.79-23.79zm-30 287.57v-227.57l113.79 113.78zm21.6 21.63 120-120h107.57l120 120zm368.4-21.63-113.79-113.79 113.79-113.78z"/></g></svg>