<svg viewBox="0 0 164 164" xmlns="http://www.w3.org/2000/svg"><g fill="#002a34"><path d="m138.28 32.08a3.2 3.2 0 1 0 3.21 3.2 3.2 3.2 0 0 0 -3.21-3.2z"/><path d="m25.53 32.08a3.2 3.2 0 1 0 3.21 3.2 3.2 3.2 0 0 0 -3.21-3.2z"/><path d="m160.8 70.47h-3.8a72.77 72.77 0 0 0 -8.63-26.17 3.2 3.2 0 0 0 -4.77-1 3.25 3.25 0 0 0 -.79 4.15 66.53 66.53 0 0 1 7.73 23h-2.54a3.2 3.2 0 0 0 -3.2 3.2v12.83a3.21 3.21 0 0 0 3.2 3.21h12.8a3.21 3.21 0 0 0 3.2-3.21v-12.81a3.2 3.2 0 0 0 -3.2-3.2zm-3.21 12.81h-6.4v-6.4h6.4z"/><path d="m117.23 93.73a.76.76 0 0 0 0-.15 1.36 1.36 0 0 0 0-.2s0-.08 0-.12l-.06-.24a.31.31 0 0 0 0-.08 2.31 2.31 0 0 0 -.1-.28 1.87 1.87 0 0 0 -.15-.32l-32-58.54a3.24 3.24 0 0 0 -1.92-1.61 3.2 3.2 0 0 0 -3.81 1.51l-32 58.61a1.87 1.87 0 0 0 -.15.32 2.31 2.31 0 0 0 -.1.28.29.29 0 0 0 0 .09l-.06.23a.5.5 0 0 1 0 .12 1.36 1.36 0 0 0 0 .2.76.76 0 0 0 0 .15v.18a.76.76 0 0 0 0 .15v.19a.68.68 0 0 1 0 .14v.2a.5.5 0 0 0 0 .12c0 .07 0 .14.07.21s0 0 0 .06l11.55 30.61a9.86 9.86 0 0 0 -3.82 3.44 9.29 9.29 0 0 0 -1.36 3.47 9.63 9.63 0 0 0 6.26 10.77v17.56a3.2 3.2 0 0 0 3.2 3.2h38.44a3.2 3.2 0 0 0 3.2-3.2v-17.53a9.59 9.59 0 0 0 4.51-3.33 9.32 9.32 0 0 0 1.77-4.15 9.61 9.61 0 0 0 -5.23-10.19l11.53-30.6s0 0 0-.06 0-.14.07-.21v-.12a1.42 1.42 0 0 1 0-.2.68.68 0 0 1 0-.14c0-.06 0-.12 0-.19a.76.76 0 0 0 0-.15v-.18zm-35.32-3a3.2 3.2 0 1 1 -3.21 3.2 3.2 3.2 0 0 1 3.21-3.23zm16.09 66.86h-32v-13.77h32zm3.09-20.18h-38.45a3.1 3.1 0 0 1 -2.87-1.82 3.26 3.26 0 0 1 1.39-4.2 3.2 3.2 0 0 1 1.55-.38h38.52a2.89 2.89 0 0 1 2.65 1.49 3.28 3.28 0 0 1 -1.22 4.53 3.1 3.1 0 0 1 -1.55.38zm-2.2-12.81h-34l-10.38-27.55h8.17a3.26 3.26 0 0 0 3.32-2.72 3.21 3.21 0 0 0 -3.17-3.68h-7.46l23.43-42.87v37a9.61 9.61 0 1 0 6.4 0v-37l23.43 42.87h-7.31a3.27 3.27 0 0 0 -3.27 2.73 3.2 3.2 0 0 0 3.17 3.67h8.09z"/><path d="m21.22 47.48a3.25 3.25 0 0 0 -.79-4.15 3.2 3.2 0 0 0 -4.77 1 72.77 72.77 0 0 0 -8.66 26.14h-3.8a3.2 3.2 0 0 0 -3.2 3.2v12.81a3.21 3.21 0 0 0 3.2 3.21h12.8a3.21 3.21 0 0 0 3.2-3.21v-12.81a3.2 3.2 0 0 0 -3.2-3.2h-2.51a66.53 66.53 0 0 1 7.73-22.99zm-8.41 35.8h-6.4v-6.4h6.4z"/><path d="m154.39 0a9.63 9.63 0 0 0 -9.06 6.41h-53.72v-3.21a3.2 3.2 0 0 0 -3.2-3.2h-12.82a3.2 3.2 0 0 0 -3.2 3.2v3.21h-53.72a9.61 9.61 0 1 0 0 6.4h32.2a71.09 71.09 0 0 0 -18.18 10.86 3.27 3.27 0 0 0 -.79 4.11 3.21 3.21 0 0 0 4.84.85c9.2-7.75 22.31-13.28 35.65-15.14v2.51a3.2 3.2 0 0 0 3.2 3.2h12.82a3.2 3.2 0 0 0 3.2-3.2v-2.51c13.34 1.86 26.45 7.39 35.65 15.14a3.21 3.21 0 0 0 2.06.75 3.2 3.2 0 0 0 2.06-5.65 70.78 70.78 0 0 0 -18.25-10.92h32.2a9.61 9.61 0 1 0 9.06-12.81zm-144.87 12.86a3.21 3.21 0 1 1 3.2-3.2 3.21 3.21 0 0 1 -3.2 3.2zm75.68-3.25v3.2h-6.4v-6.4h6.4zm69.1 3.25a3.21 3.21 0 1 1 3.2-3.2 3.2 3.2 0 0 1 -3.2 3.2z"/></g></svg>