<svg viewBox="0 0 168.43 161.85" xmlns="http://www.w3.org/2000/svg"><g fill="#002a34"><path d="m165.14 0h-161.85a3.29 3.29 0 0 0 -3.29 3.29v33.88a3.29 3.29 0 0 0 3.29 3.29h161.85a3.29 3.29 0 0 0 3.29-3.29v-33.88a3.29 3.29 0 0 0 -3.29-3.29zm-3.29 33.88h-155.27v-27.3h155.27z"/><path d="m154.48 26.4-2.69-2.69a10.51 10.51 0 1 0 -9.39 5.78 10.38 10.38 0 0 0 4.74-1.13l2.68 2.69a3.29 3.29 0 0 0 4.66-4.65zm-9.3-4.64a3.93 3.93 0 1 1 0-5.56 3.94 3.94 0 0 1 0 5.56z"/><path d="m117.94 25.55a3.31 3.31 0 0 0 -.19-.61 3.1 3.1 0 0 0 -.3-.57 3.28 3.28 0 0 0 -.91-.91 3.1 3.1 0 0 0 -.57-.3 3.31 3.31 0 0 0 -.61-.19 3.5 3.5 0 0 0 -1.29 0 3.41 3.41 0 0 0 -.62.19 3.37 3.37 0 0 0 -.56.3 3.31 3.31 0 0 0 -.5.41 2.8 2.8 0 0 0 -.41.5 3.1 3.1 0 0 0 -.3.57 2.69 2.69 0 0 0 -.19.61 2.86 2.86 0 0 0 -.06.65 3.17 3.17 0 0 0 .25 1.26 3.37 3.37 0 0 0 .3.56 3.28 3.28 0 0 0 .91.91 3.37 3.37 0 0 0 .56.3 2.94 2.94 0 0 0 .62.19 3.5 3.5 0 0 0 1.29 0 2.69 2.69 0 0 0 .61-.19 3.1 3.1 0 0 0 .57-.3 2.8 2.8 0 0 0 .5-.41 3.31 3.31 0 0 0 1-2.32 3.57 3.57 0 0 0 -.1-.65z"/><path d="m102.24 23h-68.24a3.36 3.36 0 0 0 -3.36 2.8 3.3 3.3 0 0 0 3.25 3.78h68.27a3.36 3.36 0 0 0 3.36-2.8 3.29 3.29 0 0 0 -3.28-3.78z"/><path d="m103.62 45.07h-100a3.29 3.29 0 0 0 -3.29 3.29v64.8a3.29 3.29 0 0 0 3.29 3.29h100a3.29 3.29 0 0 0 3.29-3.29v-64.8a3.29 3.29 0 0 0 -3.29-3.29zm-63.49 64.8h-27.93l18.8-21.77 13.62 15.77zm8.2 0 6.17-8.22h15.83a3.36 3.36 0 0 0 3.36-2.8 3.3 3.3 0 0 0 -3.25-3.78h-11l2.22-3h20.75l13.32 17.76zm18.33-24.34 5.4-7.19 5.39 7.19zm33.67 19.54-25.67-34.19a3.31 3.31 0 0 0 -2.66-1.32 3.28 3.28 0 0 0 -2.63 1.32l-20.76 27.67-15.17-17.55a3.14 3.14 0 0 0 -1-.82 3.33 3.33 0 0 0 -4 .79l-21.53 24.9v-54.22h93.42z"/><path d="m45.34 55.49a11.63 11.63 0 1 0 11.66 11.63 11.65 11.65 0 0 0 -11.66-11.63zm0 16.69a5.06 5.06 0 1 1 5-5.06 5.06 5.06 0 0 1 -5 5.06z"/><path d="m165.14 45.07h-50.66a3.29 3.29 0 0 0 -3.29 3.29v64.8a3.29 3.29 0 0 0 3.29 3.29h50.66a3.29 3.29 0 0 0 3.29-3.29v-64.8a3.29 3.29 0 0 0 -3.29-3.29zm-3.29 64.8h-44.08v-58.22h44.08z"/><path d="m154.25 57.24h-28.56a3.36 3.36 0 0 0 -3.36 2.8 3.3 3.3 0 0 0 3.26 3.78h28.56a3.35 3.35 0 0 0 3.35-2.82 3.28 3.28 0 0 0 -3.25-3.76z"/><path d="m154.25 70.4h-28.56a3.36 3.36 0 0 0 -3.36 2.8 3.3 3.3 0 0 0 3.26 3.8h28.56a3.35 3.35 0 0 0 3.35-2.8 3.28 3.28 0 0 0 -3.25-3.8z"/><path d="m154.25 83.56h-28.56a3.36 3.36 0 0 0 -3.36 2.8 3.3 3.3 0 0 0 3.26 3.78h28.56a3.35 3.35 0 0 0 3.35-2.8 3.28 3.28 0 0 0 -3.25-3.78z"/><path d="m128.81 99.39a3.38 3.38 0 0 0 -.18-.62 4.4 4.4 0 0 0 -.31-.56 2.8 2.8 0 0 0 -.41-.5 3.28 3.28 0 0 0 -3-.9 2.77 2.77 0 0 0 -.62.19 3.1 3.1 0 0 0 -.57.3 2.8 2.8 0 0 0 -.5.41 3.31 3.31 0 0 0 -.41.5 4.32 4.32 0 0 0 -.3.56 4.44 4.44 0 0 0 -.19.62 3.47 3.47 0 0 0 -.06.64 3.57 3.57 0 0 0 .06.65 4.31 4.31 0 0 0 .19.61 3.86 3.86 0 0 0 .3.57 3.28 3.28 0 0 0 .91.91 3.1 3.1 0 0 0 .57.3 3.17 3.17 0 0 0 1.26.25 3.28 3.28 0 0 0 2.73-1.46 3.91 3.91 0 0 0 .31-.57 3.28 3.28 0 0 0 .18-.61 2.88 2.88 0 0 0 .07-.65 2.79 2.79 0 0 0 -.03-.64z"/><path d="m154.25 96.72h-16.09a3.34 3.34 0 0 0 -3.35 2.8 3.28 3.28 0 0 0 3.25 3.77h16.09a3.34 3.34 0 0 0 3.35-2.8 3.28 3.28 0 0 0 -3.25-3.77z"/><path d="m54.28 121.39h-50.66a3.29 3.29 0 0 0 -3.29 3.29v33.88a3.29 3.29 0 0 0 3.29 3.29h50.66a3.29 3.29 0 0 0 3.29-3.29v-33.88a3.29 3.29 0 0 0 -3.29-3.29zm-3.28 33.88h-44.09v-27.27h44.09z"/><path d="m165.14 121.39h-99.35a3.29 3.29 0 0 0 -3.29 3.29v33.88a3.29 3.29 0 0 0 3.29 3.29h99.35a3.29 3.29 0 0 0 3.29-3.29v-33.88a3.29 3.29 0 0 0 -3.29-3.29zm-3.29 33.88h-92.77v-27.27h92.77v27.3z"/><path d="m84 140.85a4.44 4.44 0 0 0 -.19-.62 3.86 3.86 0 0 0 -.3-.57 3.28 3.28 0 0 0 -.91-.91 3.86 3.86 0 0 0 -.57-.3 3.26 3.26 0 0 0 -2.52 0 3.29 3.29 0 0 0 -1.06.71 3.37 3.37 0 0 0 -.42.5 3.86 3.86 0 0 0 -.3.57 4.44 4.44 0 0 0 -.19.62 3.39 3.39 0 0 0 -.06.64 3.47 3.47 0 0 0 .06.64 4.44 4.44 0 0 0 .19.62 3.76 3.76 0 0 0 .3.56 3.37 3.37 0 0 0 .42.5 3.28 3.28 0 0 0 2.32 1 2.73 2.73 0 0 0 .64-.07 2.77 2.77 0 0 0 .62-.19 3.1 3.1 0 0 0 .57-.3 2.8 2.8 0 0 0 .5-.41 3.29 3.29 0 0 0 .71-1.06 4.44 4.44 0 0 0 .19-.62 3.47 3.47 0 0 0 .06-.64 3.39 3.39 0 0 0 -.06-.67z"/><path d="m148.53 138.16h-55.14a3.36 3.36 0 0 0 -3.39 2.84 3.28 3.28 0 0 0 3.25 3.77h55.14a3.35 3.35 0 0 0 3.36-2.8 3.3 3.3 0 0 0 -3.22-3.81z"/></g></svg>