<svg viewBox="0 0 512 512" xmlns="http://www.w3.org/2000/svg"><path d="m160 423h-70v-226h70zm7.08-297.61a41 41 0 1 0 -41 41 41 41 0 0 0 41-41zm254.92 173.44c0-60.59-12.82-105.53-83.69-105.53-34.05 0-56.91 17-66.24 34.7h-.07v-31h-68v226h68v-112.21c0-29.39 7.48-57.86 43.91-57.86 35.93 0 37.09 33.61 37.09 59.73v110.34h69zm90 153.17v-392a60 60 0 0 0 -60-60h-392a60 60 0 0 0 -60 60v392a60 60 0 0 0 60 60h392a60 60 0 0 0 60-60zm-40-392v392a20 20 0 0 1 -20 20h-392a20 20 0 0 1 -20-20v-392a20 20 0 0 1 20-20h392a20 20 0 0 1 20 20z" fill="#002a34"/></svg>